<?xml version="1.0" encoding="UTF-8"?>
<svg version="1.1" xmlns="http://www.w3.org/2000/svg" width="100" height="100">
<path d="M0 0 C3.07535305 4.01393483 4.71496567 8.66717647 4.56640625 13.7578125 C3.80366847 16.77720204 2.20904156 18.98913516 0.5625 21.625 C-1.25130788 24.64125276 -1.25130788 24.64125276 -2 28 C-0.71645177 31.98461775 1.0938718 35.21584359 3.2109375 38.796875 C5.62839475 43.12507356 6.03186712 45.18462012 5 50 C2.55158831 53.98537086 -0.54734133 57.51578044 -5 59 C-8.0625 59.1875 -8.0625 59.1875 -11 59 C-11.66 58.34 -12.32 57.68 -13 57 C-13.680625 56.731875 -14.36125 56.46375 -15.0625 56.1875 C-15.701875 55.795625 -16.34125 55.40375 -17 55 C-17.34274406 53.33524314 -17.67364302 51.66804677 -18 50 C-19.4117908 47.14408731 -20.91005918 44.41103685 -23 42 C-25.81626221 41.07409005 -28.37726013 40.88126614 -31.328125 40.90234375 C-32.52695312 40.90717773 -32.52695312 40.90717773 -33.75 40.91210938 C-34.9875 40.92467773 -34.9875 40.92467773 -36.25 40.9375 C-37.09046875 40.94201172 -37.9309375 40.94652344 -38.796875 40.95117188 C-40.86461401 40.96292039 -42.93231624 40.98085478 -45 41 C-45.66415273 39.75679383 -46.31848719 38.50833987 -46.96875 37.2578125 C-47.33419922 36.56316895 -47.69964844 35.86852539 -48.07617188 35.15283203 C-49.65290815 31.47850315 -49.51384383 28.98228971 -49 25 C-47.0625 21.625 -47.0625 21.625 -45 19 C-44.67 18.34 -44.34 17.68 -44 17 C-43.01 17 -42.02 17 -41 17 C-41 16.67 -41 16.34 -41 16 C-34.73 15.67 -28.46 15.34 -22 15 C-21.34 13.35 -20.68 11.7 -20 10 C-19.4740625 8.700625 -19.4740625 8.700625 -18.9375 7.375 C-18.23822653 5.6035072 -17.60225992 3.80677977 -17 2 C-14.65570833 1.21856944 -12.39914051 0.56450365 -10 0 C-9.195625 -0.20625 -8.39125 -0.4125 -7.5625 -0.625 C-4.47983531 -1.07612166 -2.88623395 -1.25810198 0 0 Z M-10 11 C-10.56054936 12.24164697 -11.09777907 13.49383884 -11.625 14.75 C-12.07746094 15.79414062 -12.07746094 15.79414062 -12.5390625 16.859375 C-13.12565635 19.58355661 -12.44810616 20.68719735 -11 23 C-10.13341385 21.73760288 -9.28207941 20.46472499 -8.4375 19.1875 C-7.96183594 18.47980469 -7.48617187 17.77210937 -6.99609375 17.04296875 C-5.64922909 14.88563573 -5.64922909 14.88563573 -7 12 C-7.99 11.67 -8.98 11.34 -10 11 Z M-6 11 C-5 13 -5 13 -5 13 Z M-15 22 C-14 24 -14 24 -14 24 Z M-13 23 C-12 25 -12 25 -12 25 Z M-16 24 C-15 26 -15 26 -15 26 Z M-14 25 C-13 27 -13 27 -13 27 Z M-39 27 C-39.33 27.99 -39.66 28.98 -40 30 C-36.30581799 31.231394 -33.7943739 30.64432764 -30 30 C-29.67 30.66 -29.34 31.32 -29 32 C-29 31.01 -29 30.02 -29 29 C-31.97 29 -34.94 29 -38 29 C-38.33 28.34 -38.66 27.68 -39 27 Z M-37 27 C-37 27.33 -37 27.66 -37 28 C-30.73 28 -24.46 28 -18 28 C-18 27.67 -18 27.34 -18 27 C-24.27 27 -30.54 27 -37 27 Z M-16 28 C-17.06351675 31.38391693 -17.21442982 32.5804634 -15.5625 35.8125 C-15.046875 36.534375 -14.53125 37.25625 -14 38 C-13.34 37.34 -12.68 36.68 -12 36 C-12.99 33.36 -13.98 30.72 -15 28 C-15.33 28 -15.66 28 -16 28 Z M-4 28 C-3 30 -3 30 -3 30 Z M-28 29 C-28 29.33 -28 29.66 -28 30 C-25.03 30 -22.06 30 -19 30 C-19 29.67 -19 29.34 -19 29 C-21.97 29 -24.94 29 -28 29 Z M-5 30 C-8.1968339 35.21746675 -8.1968339 35.21746675 -10 41 C-10.33 41.66 -10.66 42.32 -11 43 C-10.01 44.32 -9.02 45.64 -8 47 C-6.92838416 44.49956304 -6.03457234 42.17286168 -5.5 39.5 C-4.96542766 36.82713832 -4.07161584 34.50043696 -3 32 C-3.66 31.34 -4.32 30.68 -5 30 Z M-31 32 C-30 34 -30 34 -30 34 Z M-28 33 C-27 35 -27 35 -27 35 Z M-30 34 C-29 36 -29 36 -29 36 Z M-27 35 C-26 37 -26 37 -26 37 Z M-29 36 C-28 38 -28 38 -28 38 Z M-28 38 C-27 40 -27 40 -27 40 Z M-13 38 C-12.67 38.66 -12.34 39.32 -12 40 C-11.67 39.34 -11.34 38.68 -11 38 C-11.66 38 -12.32 38 -13 38 Z M-12 40 C-11 42 -11 42 -11 42 Z M-6 44 C-5 48 -5 48 -5 48 Z " fill="#FE3737" transform="translate(68,19)"/>
<path d="M0 0 C0.33 0.66 0.66 1.32 1 2 C0.00664799 3.67063747 -0.99431758 5.33675599 -2 7 C-3.25229133 10.48724188 -3.1443909 11.68643176 -1.56640625 15.11328125 C-0.90511719 16.16902344 -0.24382813 17.22476563 0.4375 18.3125 C1.09621094 19.38113281 1.75492188 20.44976562 2.43359375 21.55078125 C2.95050781 22.35902344 3.46742187 23.16726562 4 24 C4.66 23.67 5.32 23.34 6 23 C5.938125 22.13375 5.87625 21.2675 5.8125 20.375 C6.02751799 16.50467612 7.10706959 14.34903072 9 11 C9.67238293 9.66954015 10.34022681 8.33675785 11 7 C19.43231899 22.3158447 19.43231899 22.3158447 18 29 C15.55158831 32.98537086 12.45265867 36.51578044 8 38 C4.9375 38.1875 4.9375 38.1875 2 38 C1.34 37.34 0.68 36.68 0 36 C-0.680625 35.731875 -1.36125 35.46375 -2.0625 35.1875 C-2.701875 34.795625 -3.34125 34.40375 -4 34 C-4.34274406 32.33524314 -4.67364302 30.66804677 -5 29 C-7.36615391 24.29478555 -9.21990029 21.30366251 -14 19 C-16.07189491 15.78499065 -17.10535722 13.96928647 -16.6875 10.125 C-16.460625 9.42375 -16.23375 8.7225 -16 8 C-18.97 8 -21.94 8 -25 8 C-24.67 7.34 -24.34 6.68 -24 6 C-17.73 6.33 -11.46 6.66 -5 7 C-4.67 6.34 -4.34 5.68 -4 5 C-2.68133728 3.321702 -1.34919532 1.65385233 0 0 Z M-15 8 C-15 8.33 -15 8.66 -15 9 C-12.03 9 -9.06 9 -6 9 C-6 8.67 -6 8.34 -6 8 C-8.97 8 -11.94 8 -15 8 Z M-15 12 C-14 14 -14 14 -14 14 Z M-14 14 C-13 16 -13 16 -13 16 Z M7 23 C8 27 8 27 8 27 Z " fill="#FE3333" transform="translate(55,40)"/>
<path d="M0 0 C10.23 0.33 20.46 0.66 31 1 C30.22130352 4.11478591 29.58697102 6.29281413 28 9 C25.54724859 10.2263757 23.9494219 10.11415314 21.2109375 10.09765625 C20.26992188 10.09443359 19.32890625 10.09121094 18.359375 10.08789062 C17.37453125 10.07951172 16.3896875 10.07113281 15.375 10.0625 C13.88613281 10.05573242 13.88613281 10.05573242 12.3671875 10.04882812 C9.9113984 10.03702145 7.45572896 10.020554 5 10 C5.33 10.99 5.66 11.98 6 13 C8.64 13 11.28 13 14 13 C14.12375 13.886875 14.2475 14.77375 14.375 15.6875 C14.95775229 19.36032493 14.95775229 19.36032493 17 24 C11.06 24 5.12 24 -1 24 C-5.82051282 14.35897436 -5.82051282 14.35897436 -5 8 C-3.0625 4.625 -3.0625 4.625 -1 2 C-0.67 1.34 -0.34 0.68 0 0 Z " fill="#FE2424" transform="translate(24,36)"/>
<path d="M0 0 C0.33 0.66 0.66 1.32 1 2 C0.04060332 3.69036558 -0.96642853 5.35394174 -2 7 C-2.69822617 8.65369357 -3.37498605 10.31727014 -4 12 C-4.66 10.68 -5.32 9.36 -6 8 C-8.97 8 -11.94 8 -15 8 C-15.33 8.99 -15.66 9.98 -16 11 C-16 10.01 -16 9.02 -16 8 C-18.97 8 -21.94 8 -25 8 C-24.67 7.34 -24.34 6.68 -24 6 C-17.73 6.33 -11.46 6.66 -5 7 C-4.67 6.34 -4.34 5.68 -4 5 C-2.68133728 3.321702 -1.34919532 1.65385233 0 0 Z " fill="#FFF4F4" transform="translate(55,40)"/>
<path d="M0 0 C0.66 0 1.32 0 2 0 C1.75 1.875 1.75 1.875 1 4 C-1.0625 5.25 -1.0625 5.25 -3 6 C-3 4.68 -3 3.36 -3 2 C-2.01 1.67 -1.02 1.34 0 1 C0 0.67 0 0.34 0 0 Z " fill="#FEA1A1" transform="translate(54,19)"/>
<path d="M0 0 C3.96 0 7.92 0 12 0 C12 0.33 12 0.66 12 1 C8.04 1 4.08 1 0 1 C0 0.67 0 0.34 0 0 Z " fill="#FFFBFB" transform="translate(28,61)"/>
<path d="M0 0 C0.33 0 0.66 0 1 0 C1 2.64 1 5.28 1 8 C0.67 8 0.34 8 0 8 C0 5.36 0 2.72 0 0 Z " fill="#FFFCFC" transform="translate(74,61)"/>
<path d="M0 0 C0.33 0 0.66 0 1 0 C1 2.64 1 5.28 1 8 C0.67 8 0.34 8 0 8 C0 5.36 0 2.72 0 0 Z " fill="#FFFBFB" transform="translate(17,44)"/>
<path d="M0 0 C0.33 0 0.66 0 1 0 C1 2.64 1 5.28 1 8 C0.67 8 0.34 8 0 8 C0 5.36 0 2.72 0 0 Z " fill="#FFFCFC" transform="translate(73,27)"/>
<path d="M0 0 C0 3 0 3 0 3 Z " fill="#FFFDFD" transform="translate(60,61)"/>
<path d="M0 0 C0 3 0 3 0 3 Z " fill="#FFFCFC" transform="translate(57,37)"/>
<path d="M0 0 C4 1 4 1 4 1 Z " fill="#FFFCFC" transform="translate(59,17)"/>
<path d="M0 0 C2 1 2 1 2 1 Z " fill="#FFFDFD" transform="translate(66,76)"/>
<path d="" fill="#FFFCFC" transform="translate(0,0)"/>
<path d="" fill="#FFFDFD" transform="translate(0,0)"/>
<path d="" fill="#FFFDFD" transform="translate(0,0)"/>
<path d="" fill="#FFFDFD" transform="translate(0,0)"/>
<path d="" fill="#FFFDFD" transform="translate(0,0)"/>
<path d="" fill="#FFFCFC" transform="translate(0,0)"/>
<path d="M0 0 C2 1 2 1 2 1 Z " fill="#FFFCFC" transform="translate(25,60)"/>
<path d="" fill="#FFFDFD" transform="translate(0,0)"/>
<path d="" fill="#FFFDFD" transform="translate(0,0)"/>
<path d="" fill="#FFFCFC" transform="translate(0,0)"/>
<path d="" fill="#FFFDFD" transform="translate(0,0)"/>
<path d="" fill="#FFFDFD" transform="translate(0,0)"/>
<path d="" fill="#FFFDFD" transform="translate(0,0)"/>
<path d="" fill="#FFFDFD" transform="translate(0,0)"/>
<path d="" fill="#FFFDFD" transform="translate(0,0)"/>
<path d="" fill="#FFFDFD" transform="translate(0,0)"/>
<path d="" fill="#FFFDFD" transform="translate(0,0)"/>
<path d="" fill="#FFFDFD" transform="translate(0,0)"/>
<path d="" fill="#FFFDFD" transform="translate(0,0)"/>
<path d="" fill="#FFFDFD" transform="translate(0,0)"/>
<path d="" fill="#FFFDFD" transform="translate(0,0)"/>
<path d="" fill="#FFFCFC" transform="translate(0,0)"/>
<path d="" fill="#FFFCFC" transform="translate(0,0)"/>
<path d="" fill="#FFFDFD" transform="translate(0,0)"/>
<path d="" fill="#FFFDFD" transform="translate(0,0)"/>
<path d="" fill="#FFFDFD" transform="translate(0,0)"/>
<path d="" fill="#FFFEFE" transform="translate(0,0)"/>
<path d="M0 0 C2 1 2 1 2 1 Z " fill="#FFFCFC" transform="translate(56,18)"/>
<path d="" fill="#FFFCFC" transform="translate(0,0)"/>
<path d="" fill="#FFFCFC" transform="translate(0,0)"/>
<path d="" fill="#FFFCFC" transform="translate(0,0)"/>
<path d="" fill="#FFFCFC" transform="translate(0,0)"/>
<path d="" fill="#FFFDFD" transform="translate(0,0)"/>
<path d="" fill="#FFFCFC" transform="translate(0,0)"/>
<path d="" fill="#FFFCFC" transform="translate(0,0)"/>
<path d="" fill="#FFFCFC" transform="translate(0,0)"/>
<path d="" fill="#FFFCFC" transform="translate(0,0)"/>
<path d="" fill="#FFFCFC" transform="translate(0,0)"/>
<path d="" fill="#FFFDFD" transform="translate(0,0)"/>
<path d="" fill="#FFFCFC" transform="translate(0,0)"/>
<path d="" fill="#FFF9F9" transform="translate(0,0)"/>
<path d="" fill="#FFFDFD" transform="translate(0,0)"/>
<path d="" fill="#FFFBFB" transform="translate(0,0)"/>
<path d="" fill="#FFF9F9" transform="translate(0,0)"/>
<path d="" fill="#FFFAFA" transform="translate(0,0)"/>
<path d="" fill="#FFFCFC" transform="translate(0,0)"/>
<path d="" fill="#FFF9F9" transform="translate(0,0)"/>
<path d="" fill="#FFFCFC" transform="translate(0,0)"/>
<path d="" fill="#FFFCFC" transform="translate(0,0)"/>
<path d="" fill="#FFFCFC" transform="translate(0,0)"/>
<path d="" fill="#FFFCFC" transform="translate(0,0)"/>
<path d="" fill="#FFFCFC" transform="translate(0,0)"/>
<path d="" fill="#FFFCFC" transform="translate(0,0)"/>
<path d="" fill="#FFFCFC" transform="translate(0,0)"/>
<path d="" fill="#FFFCFC" transform="translate(0,0)"/>
<path d="" fill="#FFFCFC" transform="translate(0,0)"/>
<path d="" fill="#FFFCFC" transform="translate(0,0)"/>
<path d="" fill="#FFFCFC" transform="translate(0,0)"/>
<path d="" fill="#FFFCFC" transform="translate(0,0)"/>
<path d="" fill="#FFFDFD" transform="translate(0,0)"/>
<path d="" fill="#FFFDFD" transform="translate(0,0)"/>
<path d="" fill="#FFFCFC" transform="translate(0,0)"/>
</svg>
